<?xml version="1.0" encoding="utf-8"?>
<!-- Generator: Adobe Illustrator 23.0.5, SVG Export Plug-In . SVG Version: 6.00 Build 0)  -->
<svg version="1.1" id="Layer_1" xmlns="http://www.w3.org/2000/svg" xmlns:xlink="http://www.w3.org/1999/xlink" x="0px" y="0px"
	 viewBox="0 0 66.9 57.7" style="enable-background:new 0 0 66.9 57.7;" xml:space="preserve">
<style type="text/css">
	.st0{fill:#007EAF;}
	.st1{fill:#322153;}
</style>
<g id="chat" transform="translate(0 -32)">
	<path id="Path_339" class="st0" d="M63.5,37.8H21.9c-1.3,0-2.3,1-2.3,2.3v11.5H45c1.3,0,2.3,1,2.3,2.3v16.2h4.6l9.2,9.2v-9.2h2.3
		c1.3,0,2.3-1,2.3-2.3V40.1C65.8,38.8,64.7,37.8,63.5,37.8z"/>
	<g id="Group_153" transform="translate(0 32)">
		<path id="Path_340" class="st1" d="M3.5,48.5h1.2v8.1c0,0.5,0.2,0.9,0.7,1c0.1,0.1,0.3,0.1,0.5,0.1c0.3,0,0.6-0.1,0.8-0.3l8.9-8.9
			H45c1.9,0,3.4-1.5,3.5-3.3c0,0,0-0.1,0-0.1V34.6h3l8.9,8.9c0.2,0.2,0.5,0.4,0.8,0.3c0.2,0,0.3,0,0.5-0.1c0.4-0.2,0.7-0.6,0.7-1
			v-8.1h1.2c1.9,0,3.4-1.5,3.5-3.3c0,0,0-0.1,0-0.1V3.5C67,1.6,65.5,0,63.6,0c0,0-0.1,0-0.1,0H21.9c-1.9,0-3.4,1.5-3.5,3.3
			c0,0,0,0.1,0,0.1v10.4h-15c-1.9,0-3.4,1.5-3.5,3.3c0,0,0,0.1,0,0.1V45c0,1.9,1.5,3.4,3.3,3.5C3.4,48.5,3.4,48.5,3.5,48.5z
			 M20.8,3.5c0-0.6,0.4-1.1,1-1.2c0,0,0.1,0,0.1,0h41.5c0.6,0,1.1,0.4,1.2,1c0,0,0,0.1,0,0.1v27.7c0,0.6-0.4,1.1-1,1.2
			c0,0-0.1,0-0.1,0h-2.3c-0.6,0-1.1,0.4-1.2,1c0,0,0,0.1,0,0.1v6.5l-7.3-7.3c-0.2-0.2-0.5-0.4-0.8-0.3h-3.5v-15
			c0-1.9-1.5-3.4-3.3-3.5c0,0-0.1,0-0.1,0H20.8L20.8,3.5z M2.3,17.3c0-0.6,0.4-1.1,1-1.2c0,0,0.1,0,0.1,0H45c0.6,0,1.1,0.4,1.2,1
			c0,0,0,0.1,0,0.1V45c0,0.6-0.4,1.1-1,1.2c0,0-0.1,0-0.1,0H15c-0.3,0-0.6,0.1-0.8,0.3l-7.3,7.3v-6.5c0-0.6-0.4-1.1-1-1.2
			c0,0-0.1,0-0.1,0H3.5c-0.6,0-1.1-0.4-1.2-1c0,0,0-0.1,0-0.1V17.3z"/>
		<path id="Path_341" class="st1" d="M10.4,25.4h18.5c0.6,0,1.2-0.5,1.2-1.2c0-0.6-0.5-1.2-1.2-1.2c0,0,0,0,0,0H10.4
			c-0.6,0-1.2,0.5-1.2,1.2C9.2,24.9,9.7,25.4,10.4,25.4C10.4,25.4,10.4,25.4,10.4,25.4z"/>
		<path id="Path_342" class="st1" d="M33.5,25.4h4.6c0.6,0,1.2-0.5,1.2-1.2c0-0.6-0.5-1.2-1.2-1.2c0,0,0,0,0,0h-4.6
			c-0.6,0-1.2,0.5-1.2,1.2C32.3,24.9,32.8,25.4,33.5,25.4C33.5,25.4,33.5,25.4,33.5,25.4z"/>
		<path id="Path_343" class="st1" d="M10.4,30h9.2c0.6,0,1.2-0.5,1.2-1.2c0-0.6-0.5-1.2-1.2-1.2c0,0,0,0,0,0h-9.2
			c-0.6,0-1.2,0.5-1.2,1.2C9.2,29.5,9.7,30,10.4,30C10.4,30,10.4,30,10.4,30z"/>
		<path id="Path_344" class="st1" d="M38.1,27.7H24.2c-0.6,0-1.2,0.5-1.2,1.2c0,0.6,0.5,1.2,1.2,1.2c0,0,0,0,0,0h13.8
			c0.6,0,1.2-0.5,1.2-1.2C39.2,28.2,38.7,27.7,38.1,27.7C38.1,27.7,38.1,27.7,38.1,27.7z"/>
		<path id="Path_345" class="st1" d="M10.4,34.6h27.7c0.6,0,1.2-0.5,1.2-1.2c0-0.6-0.5-1.2-1.2-1.2l0,0H10.4c-0.6,0-1.2,0.5-1.2,1.2
			C9.2,34.1,9.7,34.6,10.4,34.6z"/>
		<path id="Path_346" class="st1" d="M10.4,39.2H15c0.6,0,1.2-0.5,1.2-1.2c0-0.6-0.5-1.2-1.2-1.2h-4.6c-0.6,0-1.2,0.5-1.2,1.2
			C9.2,38.7,9.7,39.2,10.4,39.2z"/>
		<path id="Path_347" class="st1" d="M38.1,36.9H19.6c-0.6,0-1.2,0.5-1.2,1.2c0,0.6,0.5,1.2,1.2,1.2h18.5c0.6,0,1.2-0.5,1.2-1.2
			C39.2,37.4,38.7,36.9,38.1,36.9L38.1,36.9z"/>
		<path id="Path_348" class="st1" d="M48.5,10.4c0-0.6-0.4-1.1-1-1.2c0,0-0.1,0-0.1,0H28.8c-0.6,0-1.2,0.5-1.2,1.2s0.5,1.2,1.2,1.2
			c0,0,0,0,0,0h18.5c0.6,0,1.1-0.4,1.2-1C48.5,10.5,48.5,10.4,48.5,10.4z"/>
		<path id="Path_349" class="st1" d="M51.9,11.5h4.6c0.6,0,1.2-0.5,1.2-1.2c0-0.6-0.5-1.2-1.2-1.2h-4.6c-0.6,0-1.2,0.5-1.2,1.2
			S51.3,11.5,51.9,11.5C51.9,11.5,51.9,11.5,51.9,11.5z"/>
		<path id="Path_350" class="st1" d="M51.9,16.2h4.6c0.6,0,1.2-0.5,1.2-1.2c0-0.6-0.5-1.2-1.2-1.2h-4.6c-0.6,0-1.2,0.5-1.2,1.2
			C50.8,15.6,51.3,16.2,51.9,16.2C51.9,16.2,51.9,16.2,51.9,16.2z"/>
		<path id="Path_351" class="st1" d="M51.9,20.8h4.6c0.6,0,1.2-0.5,1.2-1.2c0-0.6-0.5-1.2-1.2-1.2h-4.6c-0.6,0-1.2,0.5-1.2,1.2
			C50.8,20.3,51.3,20.8,51.9,20.8C51.9,20.8,51.9,20.8,51.9,20.8z"/>
		<path id="Path_352" class="st1" d="M51.9,25.4h4.6c0.6,0,1.2-0.5,1.2-1.2c0-0.6-0.5-1.2-1.2-1.2h-4.6c-0.6,0-1.2,0.5-1.2,1.2
			C50.8,24.9,51.3,25.4,51.9,25.4C51.9,25.4,51.9,25.4,51.9,25.4z"/>
	</g>
</g>
</svg>
