<?xml version="1.0" encoding="utf-8"?>
<!-- Generator: Adobe Illustrator 23.0.5, SVG Export Plug-In . SVG Version: 6.00 Build 0)  -->
<svg version="1.1" id="Layer_1" xmlns="http://www.w3.org/2000/svg" xmlns:xlink="http://www.w3.org/1999/xlink" x="0px" y="0px"
	 viewBox="0 0 65 69.8" style="enable-background:new 0 0 65 69.8;" xml:space="preserve">
<style type="text/css">
	.st0{fill:#007EAF;}
	.st1{fill:#322153;}
</style>
<g id="coffee-cup" transform="translate(-16)">
	<path id="Path_320" class="st0" d="M74.9,30.1h-9.6v4.8h7.2c1.3,0,2.4,1.1,2.4,2.4v9.6c0,1.3-1.1,2.4-2.4,2.4h-7.2v4.8h9.6
		c2.7,0,4.8-2.2,4.8-4.8V34.9C79.7,32.2,77.6,30.1,74.9,30.1z"/>
	<g id="Group_151" transform="translate(16)">
		<path id="Path_321" class="st1" d="M58.9,24.1h-8.4v-1.2c0-2-1.5-3.6-3.5-3.6c0,0-0.1,0-0.1,0H3.6c-2,0-3.6,1.5-3.6,3.5
			c0,0,0,0.1,0,0.1v21.1c0,13.8,10.9,25.4,24.3,25.9h1c6.6,0,12.8-2.5,17.6-7.1c3.4-3.3,5.9-7.5,7-12.1h9.1c3.3,0,6-2.6,6-5.9
			c0,0,0-0.1,0-0.1V30.1c0-3.3-2.6-6-5.9-6C59,24.1,59,24.1,58.9,24.1z M50.5,31.3h6c0.6,0,1.2,0.4,1.2,1.1c0,0,0,0.1,0,0.1v9.6
			c0,0.6-0.4,1.2-1.1,1.2c0,0-0.1,0-0.1,0h-6L50.5,31.3z M41.1,61c-4.5,4.3-10.5,6.6-16.7,6.4c-12.1-0.5-22-10.9-22-23.5V22.9
			c0-0.6,0.4-1.2,1.1-1.2c0,0,0.1,0,0.1,0h43.3c0.6,0,1.2,0.4,1.2,1.1c0,0,0,0.1,0,0.1v21.7C48.1,50.7,45.6,56.7,41.1,61z
			 M62.5,44.5c0,2-1.5,3.6-3.5,3.6c0,0-0.1,0-0.1,0h-8.4v-2.4h6c2,0,3.6-1.5,3.6-3.5c0,0,0-0.1,0-0.1v-9.6c0-2-1.5-3.6-3.5-3.6
			c0,0-0.1,0-0.1,0h-6v-2.4h8.4c2,0,3.6,1.5,3.6,3.5c0,0,0,0.1,0,0.1L62.5,44.5z"/>
		<path id="Path_322" class="st1" d="M25.3,62.5c-10,0-18-8-18-18c0,0,0,0,0-0.1c0-0.7-0.5-1.2-1.2-1.2s-1.2,0.5-1.2,1.2
			c0,11.3,9.1,20.4,20.4,20.4c0,0,0,0,0,0c0.7,0,1.2-0.5,1.2-1.2S25.9,62.5,25.3,62.5L25.3,62.5z"/>
		<path id="Path_323" class="st1" d="M29.2,34l-9.6,9.6c-0.5,0.4-0.5,1.2,0,1.6c0,0,0,0,0,0c0.4,0.5,1.2,0.5,1.6,0c0,0,0,0,0,0
			l9.6-9.6c0.5-0.5,0.4-1.2,0-1.7C30.4,33.6,29.7,33.6,29.2,34z"/>
		<path id="Path_324" class="st1" d="M20.4,40.9c0.3,0,0.6-0.1,0.8-0.4l4.8-4.8c0.5-0.5,0.4-1.2,0-1.7c-0.5-0.4-1.2-0.4-1.7,0
			l-4.8,4.8c-0.5,0.4-0.5,1.2,0,1.6c0,0,0,0,0,0C19.8,40.8,20.1,40.9,20.4,40.9z"/>
		<path id="Path_325" class="st1" d="M29.2,38.9l-4.8,4.8c-0.5,0.4-0.5,1.2,0,1.6c0,0,0,0,0,0c0.4,0.5,1.2,0.5,1.6,0c0,0,0,0,0,0
			l4.8-4.8c0.5-0.5,0.4-1.2,0-1.7C30.4,38.4,29.7,38.4,29.2,38.9z"/>
		<path id="Path_326" class="st1" d="M26.5,15.6V1.2c0-0.7-0.5-1.2-1.2-1.2s-1.2,0.5-1.2,1.2v14.4c0,0.7,0.5,1.2,1.2,1.2
			S26.5,16.3,26.5,15.6L26.5,15.6z"/>
		<path id="Path_327" class="st1" d="M16.8,10.8V6c0-0.7-0.5-1.2-1.2-1.2c-0.7,0-1.2,0.5-1.2,1.2v4.8c0,0.7,0.5,1.2,1.2,1.2
			C16.3,12,16.8,11.5,16.8,10.8L16.8,10.8z"/>
		<path id="Path_328" class="st1" d="M36.1,10.8V6c0-0.7-0.5-1.2-1.2-1.2S33.7,5.3,33.7,6v4.8c0,0.7,0.5,1.2,1.2,1.2
			S36.1,11.5,36.1,10.8L36.1,10.8L36.1,10.8z"/>
		<path id="Path_329" class="st1" d="M21.7,15.6V6c0-0.7-0.5-1.2-1.2-1.2S19.2,5.3,19.2,6v9.6c0,0.7,0.5,1.2,1.2,1.2
			S21.7,16.3,21.7,15.6L21.7,15.6z"/>
		<path id="Path_330" class="st1" d="M31.3,10.8V1.2c0-0.7-0.5-1.2-1.2-1.2s-1.2,0.5-1.2,1.2v9.6c0,0.7,0.5,1.2,1.2,1.2
			S31.3,11.5,31.3,10.8L31.3,10.8L31.3,10.8z"/>
	</g>
</g>
</svg>
