<?xml version="1.0" encoding="utf-8"?>
<!-- Generator: Adobe Illustrator 23.0.5, SVG Export Plug-In . SVG Version: 6.00 Build 0)  -->
<svg version="1.1" id="Layer_1" xmlns="http://www.w3.org/2000/svg" xmlns:xlink="http://www.w3.org/1999/xlink" x="0px" y="0px"
	 viewBox="0 0 400 432" style="enable-background:new 0 0 400 432;" xml:space="preserve">
<style type="text/css">
	.st0{fill:#007EAF;}
	.st1{fill:#322153;}
</style>
<g id="multimedia" transform="translate(-16)">
	<path id="Path_373" class="st0" d="M344,72c0-17.7-14.3-32-32-32c0,0,0,0,0,0H120c-17.7,0-32,14.3-32,32c0,0,0,0,0,0v202.7L216,360
		l128-85.3V72z"/>
	<g id="Group_157">
		<path id="Path_374" class="st1" d="M312,0H120C97.9,0,80,17.9,80,40v113.1l-60.4,40.3c-0.3,0.2-0.6,0.5-0.9,0.8
			c-0.1,0.1-0.3,0.2-0.4,0.3c-0.6,0.6-1.1,1.4-1.5,2.2c-0.1,0.2-0.1,0.4-0.2,0.6c-0.4,0.9-0.5,1.8-0.6,2.8v224c0,4.4,3.6,8,8,8h384
			c4.4,0,8-3.6,8-8V200c0-1-0.2-1.9-0.6-2.8c-0.1-0.2-0.1-0.4-0.2-0.6c-0.4-0.8-0.9-1.5-1.5-2.2c-0.1-0.1-0.3-0.2-0.4-0.3
			c-0.3-0.3-0.6-0.6-0.9-0.8L352,153.1V40C352,17.9,334.1,0,312,0z M400,404.7L286.2,290.8L400,214.9V404.7z M32,214.9l113.8,75.9
			L32,404.7V214.9z M157.7,301.7c0.6-0.6,1-1.3,1.4-2l52.6,35c2.7,1.8,6.2,1.8,8.9,0l52.6-35c0.3,0.7,0.8,1.4,1.4,2L388.7,416H43.3
			L157.7,301.7z M96,40c0-13.2,10.8-24,24-24h192c13.2,0,24,10.8,24,24v198.4l-120,80l-120-80V40z M80,172.3v55.4L38.4,200L80,172.3
			z M393.6,200L352,227.7v-55.4L393.6,200z"/>
		<path id="Path_375" class="st1" d="M184,80h64c4.4,0,8-3.6,8-8s-3.6-8-8-8h-64c-4.4,0-8,3.6-8,8S179.6,80,184,80z"/>
		<path id="Path_376" class="st1" d="M120,144h192c4.4,0,8-3.6,8-8s-3.6-8-8-8H120c-4.4,0-8,3.6-8,8S115.6,144,120,144z"/>
		<path id="Path_377" class="st1" d="M120,176h192c4.4,0,8-3.6,8-8s-3.6-8-8-8H120c-4.4,0-8,3.6-8,8S115.6,176,120,176z"/>
		<path id="Path_378" class="st1" d="M320,200c0-4.4-3.6-8-8-8c0,0,0,0,0,0H120c-4.4,0-8,3.6-8,8s3.6,8,8,8h192
			C316.4,208,320,204.4,320,200C320,200,320,200,320,200z"/>
	</g>
</g>
</svg>
