<?xml version="1.0" encoding="utf-8"?>
<!-- Generator: Adobe Illustrator 23.0.5, SVG Export Plug-In . SVG Version: 6.00 Build 0)  -->
<svg version="1.1" id="Layer_1" xmlns="http://www.w3.org/2000/svg" xmlns:xlink="http://www.w3.org/1999/xlink" x="0px" y="0px"
	 viewBox="0 0 281.5 410" style="enable-background:new 0 0 281.5 410;" xml:space="preserve">
<style type="text/css">
	.st0{fill:#007EAF;}
	.st1{fill:#322153;}
</style>
<g id="placeholder" transform="translate(-76.364)">
	<path id="Path_379" class="st0" d="M217.1,410c53.9,0,134.6-168,134.6-242.4c0.2-74.4-59.9-134.8-134.3-135
		C143.1,32.5,82.7,92.6,82.5,167c0,0.2,0,0.5,0,0.7C82.5,242.1,163.3,410,217.1,410z M217.1,86.9c44.6,0,80.8,36.2,80.8,80.8
		s-36.2,80.8-80.8,80.8s-80.8-36.2-80.8-80.8C136.3,123.1,172.5,86.9,217.1,86.9L217.1,86.9z"/>
	<g id="Group_158" transform="translate(76.364)">
		<path id="Path_380" class="st1" d="M140.8,227.7c48,0,86.9-38.9,86.9-86.9c0-48-38.9-86.9-86.9-86.9s-86.9,38.9-86.9,86.9l0,0
			C53.9,188.7,92.8,227.6,140.8,227.7z M140.8,66.1c41.2,0,74.7,33.4,74.7,74.7c0,41.2-33.4,74.7-74.7,74.7S66.1,182,66.1,140.8
			c0,0,0,0,0,0C66.1,99.5,99.5,66.1,140.8,66.1z"/>
		<path id="Path_381" class="st1" d="M140.8,389.2c59,0,140.8-172.5,140.8-248.5C281.5,63.1,218.4,0,140.8,0S0,63.1,0,140.8
			C0,216.7,81.8,389.2,140.8,389.2z M140.8,12.2c70.9,0.1,128.4,57.6,128.5,128.5c0,75.2-80.7,236.2-128.5,236.2
			S12.2,216,12.2,140.8C12.3,69.8,69.8,12.3,140.8,12.2L140.8,12.2z"/>
		<path id="Path_382" class="st1" d="M140.8,350.1c-18.2,0-55-60.9-75.2-104.2c-1.4-3.1-5.1-4.4-8.1-2.9c-3.1,1.4-4.4,5.1-2.9,8.1
			c8.7,18.6,53.8,111.2,86.3,111.2c3.4,0,6.1-2.7,6.1-6.1S144.1,350.1,140.8,350.1L140.8,350.1z"/>
		<path id="Path_383" class="st1" d="M140.8,39.2c56.1,0.1,101.5,45.5,101.6,101.6c0,3.4,2.7,6.1,6.1,6.1s6.1-2.7,6.1-6.1
			c-0.1-62.8-51-113.8-113.8-113.8c-3.4,0-6.1,2.7-6.1,6.1S137.4,39.2,140.8,39.2L140.8,39.2z"/>
	</g>
</g>
</svg>
