<?xml version="1.0" encoding="utf-8"?>
<!-- Generator: Adobe Illustrator 23.0.5, SVG Export Plug-In . SVG Version: 6.00 Build 0)  -->
<svg version="1.1" id="Layer_1" xmlns="http://www.w3.org/2000/svg" xmlns:xlink="http://www.w3.org/1999/xlink" x="0px" y="0px"
	 viewBox="0 0 59.3 59.4" style="enable-background:new 0 0 59.3 59.4;" xml:space="preserve">
<style type="text/css">
	.st0{fill:#007EAF;}
	.st1{fill:#322153;}
</style>
<g id="target" transform="translate(-0.177 0)">
	<circle id="Ellipse_22" class="st0" cx="29.8" cy="33.8" r="16.4"/>
	<g id="Group_149" transform="translate(0.177 0)">
		<path id="Path_313" class="st1" d="M47.6,47.8L47.6,47.8C47.7,47.8,47.7,47.7,47.6,47.8c10-9.9,10.1-26,0.2-36
			c0,0-0.1-0.1-0.1-0.1v-0.1c0-0.1,0,0-0.1,0c-4.8-4.8-11.3-7.5-18-7.5c-5.1,0-10.1,1.5-14.3,4.4c-0.5,0.3-0.6,1-0.3,1.4
			c0.3,0.5,1,0.6,1.4,0.3c3.6-2.5,7.8-3.9,12.2-4.1v3.1c0,0.5,0.4,1,0.9,1c0,0,0.1,0,0.1,0c10.7,0,19.4,8.7,19.4,19.4c0,0,0,0,0,0
			c0,0.5,0.4,1,0.9,1c0,0,0.1,0,0.1,0h3.1C53,36.2,50.8,41.5,47,45.5l-2.1-2.1c-0.4-0.4-1-0.4-1.4,0s-0.4,1,0,1.4l2.1,2.1
			c-4.1,3.7-9.3,5.9-14.8,6.1V50c0-0.6-0.5-1-1-1c-0.6,0-1,0.5-1,1v3.1c-5.5-0.2-10.8-2.4-14.8-6.1l2.1-2.1c0.4-0.4,0.3-1.1-0.1-1.4
			c-0.4-0.3-0.9-0.3-1.3,0l-2.1,2.1c-3.7-4.1-5.9-9.3-6.1-14.8h3.1c0.6,0,1-0.5,1-1c0-0.6-0.5-1-1-1H6.1c0.2-4.3,1.5-8.4,3.9-12
			c0.3-0.5,0.2-1.1-0.3-1.4c-0.5-0.3-1.1-0.2-1.4,0.3C5.5,19.8,4,24.7,4,29.7c0,6.8,2.7,13.2,7.5,18v0.1c0,0.1,0,0,0.1,0
			C21.5,57.7,37.7,57.8,47.6,47.8C47.6,47.8,47.6,47.8,47.6,47.8L47.6,47.8z M44.1,13.8c-3.7-3.4-8.4-5.3-13.4-5.5V6.1
			c5.5,0.2,10.8,2.4,14.8,6.1L44.1,13.8z M45.5,15.3l1.4-1.4c3.7,4.1,5.9,9.3,6.1,14.8h-2C50.8,23.7,48.9,18.9,45.5,15.3z"/>
		<path id="Path_314" class="st1" d="M4.7,0.1C4.3,0.2,4,0.6,4.1,1v3.1H1c-0.4,0-0.8,0.2-0.9,0.6C-0.1,5.1,0,5.5,0.3,5.8l4.1,4.1
			c0.2,0.2,0.4,0.3,0.7,0.3h3.7l18.4,18.4h-1.6c-0.6,0-1,0.5-1,1s0.5,1,1,1h4.1c0.1,0,0.2,0,0.3-0.1H30c0.1,0,0.1-0.1,0.2-0.1
			c0.1,0,0.1,0,0.1-0.1l0,0c0.1-0.1,0.1-0.2,0.2-0.3l0,0c0-0.1,0.1-0.2,0.1-0.3l0,0v-4.1c0-0.6-0.5-1-1-1c-0.6,0-1,0.5-1,1v1.6
			L10.2,8.9V5.1c0-0.3-0.1-0.5-0.3-0.7L5.8,0.3C5.5,0,5-0.1,4.7,0.1z M5.5,8.2l-2-2h1.2l2,2L5.5,8.2z M6.1,3.5l2,2v1.2l-2-2L6.1,3.5
			z"/>
		<path id="Path_315" class="st1" d="M15.8,20.9c-0.5-0.3-1.1-0.1-1.4,0.4c0,0,0,0,0,0c-1.4,2.6-2.2,5.5-2.1,8.4
			c0,9.6,7.8,17.4,17.4,17.4S47,39.3,47,29.7s-7.8-17.4-17.4-17.4c-2.9,0-5.8,0.7-8.4,2.1c-0.5,0.3-0.7,0.9-0.4,1.4
			c0.3,0.5,0.9,0.7,1.4,0.4c2.3-1.3,4.9-1.9,7.5-1.9c8.5,0,15.3,6.9,15.3,15.4c0,8.5-6.9,15.3-15.4,15.3c-8.5,0-15.3-6.9-15.3-15.3
			c0-2.6,0.6-5.2,1.9-7.5C16.5,21.7,16.3,21.2,15.8,20.9z"/>
		<circle id="Ellipse_23" class="st1" cx="29.6" cy="17.4" r="1"/>
		<circle id="Ellipse_24" class="st1" cx="29.6" cy="42" r="1"/>
		<circle id="Ellipse_25" class="st1" cx="17.4" cy="29.7" r="1"/>
		<circle id="Ellipse_26" class="st1" cx="41.9" cy="29.7" r="1"/>
		<circle id="Ellipse_27" class="st1" cx="38.3" cy="38.4" r="1"/>
		<circle id="Ellipse_28" class="st1" cx="21" cy="38.4" r="1"/>
		<circle id="Ellipse_29" class="st1" cx="38.3" cy="21" r="1"/>
		<path id="Path_316" class="st1" d="M58.3,28.7c-0.5,0-1,0.4-1,0.9c0,0,0,0.1,0,0.1c0,15.3-12.4,27.6-27.6,27.6c-0.6,0-1,0.5-1,1
			s0.5,1,1,1c16.4,0,29.7-13.3,29.7-29.7c0-0.5-0.4-1-0.9-1C58.4,28.7,58.3,28.7,58.3,28.7z"/>
	</g>
</g>
</svg>
