<?xml version="1.0" encoding="utf-8"?>
<!-- Generator: Adobe Illustrator 23.0.5, SVG Export Plug-In . SVG Version: 6.00 Build 0)  -->
<svg version="1.1" id="Layer_1" xmlns="http://www.w3.org/2000/svg" xmlns:xlink="http://www.w3.org/1999/xlink" x="0px" y="0px"
	 viewBox="0 0 433.9 457.9" style="enable-background:new 0 0 433.9 457.9;" xml:space="preserve">
<style type="text/css">
	.st0{fill:#007EAF;}
	.st1{fill:#322153;}
</style>
<g id="technology" transform="translate(-12.007)">
	<path id="Path_384" class="st0" d="M409.6,339.4c-21.8-21.8-57.2-21.8-79.1,0c-14.6,14.6-36.9,18.2-55.4,9l0,0
		c-63-31.5-114.1-82.6-145.6-145.6c-9.2-18.5-5.6-40.8,9-55.4c21.8-21.8,21.8-57.2,0-79.1l-8.5-8.5c-26.5-26.5-69.5-26.5-96,0
		c0,0,0,0,0,0c-10.8,10.8-15.8,26-13.5,41.1c6.9,43.6,32.1,137.6,125.5,230.9S333.4,450.5,377,457.3c15.1,2.3,30.3-2.7,41.1-13.5
		c26.5-26.5,26.5-69.5,0-96c0,0,0,0,0,0L409.6,339.4z"/>
	<g id="Group_159">
		<path id="Path_385" class="st1" d="M12.7,70.2c7.5,47.7,34.1,141.7,127.7,235.3S328,425.7,375.7,433.2c2.8,0.4,5.7,0.7,8.5,0.7
			c14.8,0,29-5.9,39.5-16.4c29.6-29.7,29.6-77.7,0-107.3l-8.5-8.5c-25-24.9-65.4-24.9-90.4,0c-12.2,12.2-30.8,15.2-46.2,7.5
			c-61.4-30.8-111.2-80.6-142-142c-7.7-15.4-4.7-34,7.5-46.2c24.9-25,24.9-65.4,0-90.4l-8.5-8.5C106-7.4,58-7.4,28.4,22.2
			C15.8,34.8,10,52.6,12.7,70.2z M82,16c15.9,0,31.1,6.3,42.3,17.5l8.5,8.5c18.7,18.7,18.7,49,0,67.8c-17.1,17-21.3,43.1-10.5,64.6
			c32.4,64.5,84.7,116.8,149.2,149.2c21.6,10.8,47.6,6.6,64.6-10.5c18.7-18.7,49-18.7,67.8,0l8.5,8.5c23.3,23.4,23.3,61.3,0,84.7
			c-8.9,9-21.6,13.2-34.2,11.2c-45.8-7.2-136.1-32.8-226.5-123.2S35.7,113.5,28.5,67.7c-1.9-12.5,2.2-25.2,11.2-34.2
			C50.9,22.3,66.1,16,82,16z"/>
		<path id="Path_386" class="st1" d="M82,179.9c1.2,0,2.4-0.3,3.5-0.8c4-1.9,5.6-6.7,3.7-10.7c0,0,0,0,0,0
			c-45-91.9-33-119.1-32.4-120.2c2.4-3.7,1.3-8.7-2.5-11c-3.6-2.3-8.5-1.3-10.9,2.2c-3.5,5-18.2,35,31.4,136.1
			C76.2,178.1,79,179.9,82,179.9z"/>
		<path id="Path_387" class="st1" d="M242,163.9c-22.1,0-40,17.9-40,40s17.9,40,40,40s40-17.9,40-40
			C282,181.8,264.1,163.9,242,163.9z M242,227.9c-13.3,0-24-10.7-24-24s10.7-24,24-24s24,10.7,24,24
			C266,217.1,255.3,227.8,242,227.9z"/>
		<path id="Path_388" class="st1" d="M306,211.9c4.4,0,8-3.6,8-8c0,0,0,0,0,0c0-39.7-32.3-72-72-72c-4.4,0-8,3.6-8,8s3.6,8,8,8
			c30.9,0,56,25.1,56,56C298,208.3,301.6,211.8,306,211.9C306,211.9,306,211.9,306,211.9z"/>
		<path id="Path_389" class="st1" d="M338,211.9c4.4,0,8-3.6,8-8c0,0,0,0,0,0c-0.1-57.4-46.6-103.9-104-104c-4.4,0-8,3.6-8,8
			s3.6,8,8,8c48.6,0.1,87.9,39.4,88,88C330,208.3,333.6,211.8,338,211.9C338,211.9,338,211.9,338,211.9z"/>
		<path id="Path_390" class="st1" d="M370,211.9c4.4,0,8-3.6,8-8c0,0,0,0,0,0c0-75-61-136-136-136c-4.4,0-8,3.6-8,8s3.6,8,8,8
			c66.2,0.1,119.9,53.8,120,120C362,208.3,365.6,211.8,370,211.9C370,211.9,370,211.9,370,211.9z"/>
		<path id="Path_391" class="st1" d="M402,211.9c4.4,0,8-3.6,8-8c0,0,0,0,0,0c0-92.6-75.4-168-168-168c-4.4,0-8,3.6-8,8s3.6,8,8,8
			c83.8,0,152,68.2,152,152C394,208.3,397.6,211.8,402,211.9C402,211.9,402,211.9,402,211.9z"/>
	</g>
</g>
</svg>
