<svg id="Layer_1" data-name="Layer 1" xmlns="http://www.w3.org/2000/svg" viewBox="0 0 400 400.08"><defs><style>.cls-1{fill:#007eaf;}.cls-2{fill:#666;}</style></defs><title>ZK cloud</title><path class="cls-1" d="M467.64,136.13c-.92-.86-1.3-1.43-1.82-1.66-64.81-29-137.35-1.59-166.88,63.22-2.5,5.47-5.14,6.89-11.08,6.6-43.9-2.19-82.15,31.05-87.31,75.37-5,43.33,24.86,85.93,68.19,91.61,29.1,3.82,59,1.75,88.52,2.09,1.55,0,4.16-1.87,4.53-3.32,1.91-7.63,3.27-15.41,5-24-26.34,0-51.22.08-76.09-.06-6.2,0-12.57,0-18.56-1.36a57.15,57.15,0,1,1,25.57-111.4c5.62,1.27,11.16,2.87,17.42,4.5,5.37-28.63,17.5-52.22,40.85-68.81,23.54-16.72,49.5-21.63,78.62-15.86-20.14,73.89-40,146.77-60.08,220.49,21.89,0,42.12-.5,62.31.23,8.39.31,11.69-2.19,13.84-10.31,13.94-52.55,28.43-104.95,42.77-157.39.66-2.41,1.62-4.74,2.64-7.67,8.22,11.27,10.42,21.85,6.65,34.86-12.65,43.55-24.2,87.43-36.13,131.19-.76,2.8-1.18,5.68-1.87,9.08,22.82,0,44.6.19,66.36-.25,2.56,0,6.5-3.12,7.33-5.61,3.63-10.89,6.35-22.09,9.4-33.17L565,272.2c9.79,15.05,9.07,32.62,1.88,49-6.31,14.39-10,29.94-14.8,45,30-12.18,46-33.91,47.79-64.38,2.19-37.13-17.78-61.24-49.74-78-.9,2.91-1.78,5.49-2.5,8.12q-14,51.24-28,102.49c-3.58,13.12-3.55,13.14-18.84,10.5.59-2.66,1.08-5.3,1.78-7.89,9.87-36.28,20-72.49,29.45-108.88a35.69,35.69,0,0,0-.41-17.89c-8-28-26.25-48.86-48.87-67.65-1,3.18-1.84,5.73-2.55,8.33q-25.2,92.16-50.36,184.32c-3.3,12.1-5.31,13.1-18.91,8.95Q439.29,240,467.64,136.13Z" transform="translate(-200 -122.96)"/><path class="cls-1" d="M256.7,516.28a4.52,4.52,0,0,1-1.68,3.6,6.49,6.49,0,0,1-4.34,1.43h-37a6.19,6.19,0,0,1-4.4-1.51,4.73,4.73,0,0,1-1.62-3.59,12.42,12.42,0,0,1,.58-3.64,19.25,19.25,0,0,1,1.91-4.17q1.32-2.25,3.41-5.21c1.39-2,3.09-4.22,5.1-6.77l19.91-25.12a42.44,42.44,0,0,0,4.16-6.31,28.39,28.39,0,0,0,2.2-5H207.16V458a6.86,6.86,0,0,1,1.56-4.8q1.56-1.71,6.42-1.71h36.23a4.55,4.55,0,0,1,3,1.44,4.91,4.91,0,0,1,1.56,3.77q0,6-8.91,17.36l-19.57,25q-3,3.82-5.5,7.35a45.36,45.36,0,0,0-3.87,6.43H256.7Z" transform="translate(-200 -122.96)"/><path class="cls-1" d="M277.88,521.31a5.69,5.69,0,0,1-4.17-1.74,6.61,6.61,0,0,1-1.73-4.86V451.39h2.78a5.94,5.94,0,0,1,6.59,6.48v26.51l11.12-15a161.13,161.13,0,0,1,11.92-14.29,11.55,11.55,0,0,1,3.88-2.73,17.47,17.47,0,0,1,6.65-1h4.63V452a72.88,72.88,0,0,0-6.71,6.65q-3.58,4-7.23,8.4t-7.24,9q-3.58,4.58-6.6,8.39c.93,1.31,2.28,3.11,4.05,5.38s3.65,4.65,5.62,7.12,3.89,4.85,5.79,7.12,3.45,4.07,4.68,5.38a34.94,34.94,0,0,0,4.87,4.69,25.87,25.87,0,0,0,5.9,3.19,19.72,19.72,0,0,1-2.32,3.24,4.93,4.93,0,0,1-3.81,1.27,12.82,12.82,0,0,1-4.92-1,11.4,11.4,0,0,1-4-2.72q-3-3.24-6.77-7.7t-7.41-9q-3.65-4.57-6.89-8.8t-5.21-7v35.77Z" transform="translate(-200 -122.96)"/><path class="cls-2" d="M381.09,467.59a15,15,0,0,0-7.64-6.08,28.32,28.32,0,0,0-9.49-1.68,27.43,27.43,0,0,0-10.31,1.86,22.56,22.56,0,0,0-7.93,5.26,23.92,23.92,0,0,0-5.09,8.11,28.32,28.32,0,0,0-1.79,10.24,36.83,36.83,0,0,0,2,12.62,25.91,25.91,0,0,0,5.38,9.08,21.28,21.28,0,0,0,8.1,5.44,28,28,0,0,0,10.13,1.8,24.33,24.33,0,0,0,9.72-1.8,18.68,18.68,0,0,0,6.95-5h.58v2.89a9.71,9.71,0,0,1-1.28,4.75,12.88,12.88,0,0,1-3.7,4.11,19,19,0,0,1-6,2.84,29.2,29.2,0,0,1-8.1,1,31.88,31.88,0,0,1-12.91-2.66A32.57,32.57,0,0,1,339.07,513,34.77,34.77,0,0,1,332,501.56a40,40,0,0,1-2.6-14.75,39.2,39.2,0,0,1,2.31-13.37A34.88,34.88,0,0,1,338.37,462a32.85,32.85,0,0,1,10.83-8,34.05,34.05,0,0,1,14.64-3,22.78,22.78,0,0,1,7.76,1.21,18.06,18.06,0,0,1,5.61,3.13,14.39,14.39,0,0,1,3.47,4.16A9.41,9.41,0,0,1,381.9,464v3.59Z" transform="translate(-200 -122.96)"/><path class="cls-2" d="M417.2,517.13q0,5.22-7.17,5.21-7.87,0-11.93-3.82t-4.05-11.8V448.6h2.78a6.16,6.16,0,0,1,4.46,1.74,7,7,0,0,1,1.79,5.21v50.12q0,5,2.32,6.72a9.75,9.75,0,0,0,6,1.73h5.78Z" transform="translate(-200 -122.96)"/><path class="cls-2" d="M472.19,494.68a38.92,38.92,0,0,1-1.68,11.86,25.23,25.23,0,0,1-4.81,8.91,21.18,21.18,0,0,1-7.46,5.62,23.18,23.18,0,0,1-9.67,2,24.75,24.75,0,0,1-9.72-1.91,22.58,22.58,0,0,1-7.76-5.38,25.22,25.22,0,0,1-5.09-8.34,30.11,30.11,0,0,1-1.85-10.76q0-13.2,6.6-20.67t17.82-7.46a23.34,23.34,0,0,1,9.55,1.91,21.83,21.83,0,0,1,7.47,5.32,24.34,24.34,0,0,1,4.86,8.22A31.25,31.25,0,0,1,472.19,494.68ZM463,496.76Q463,477,447.18,477A12.4,12.4,0,0,0,437,481.71q-3.83,4.76-3.82,13.08,0,9,4.22,14.36t12,5.32q6.72,0,10.19-5T463,496.76Z" transform="translate(-200 -122.96)"/><path class="cls-2" d="M530.3,499.42q0,11.58-5.73,17.54t-16.27,6q-9.84,0-15.68-6.36t-5.85-17.95V469.33h2.78q6.26,0,6.25,7.06V498q0,8.12,3.65,12.27a11.94,11.94,0,0,0,9.43,4.17q6.25,0,9.38-3.7t3.12-12.27V469.33h2.43q6.48,0,6.49,7.06Z" transform="translate(-200 -122.96)"/><path class="cls-2" d="M592.69,494.1q0,15.28-5.73,22.11T568.84,523a21.36,21.36,0,0,1-9.26-2.09,24.26,24.26,0,0,1-7.7-5.73,27.92,27.92,0,0,1-7.12-18.81q0-13.65,6-20.83t17-7.18a18,18,0,0,1,9,2.31,17.22,17.22,0,0,1,6.77,7.76V448.6H586q6.72,0,6.72,7.3Zm-9.15,2.55a41.38,41.38,0,0,0-.63-7.18,18.48,18.48,0,0,0-2.38-6.43,13.16,13.16,0,0,0-4.74-4.57,15.4,15.4,0,0,0-7.76-1.74q-6.94,0-10.59,4.92c-2.43,3.29-3.65,7.93-3.65,14A23.29,23.29,0,0,0,555,503a18.7,18.7,0,0,0,3.24,6,15.5,15.5,0,0,0,5,4.05,13.86,13.86,0,0,0,6.42,1.51q7.19,0,10.54-4.11T583.54,496.65Z" transform="translate(-200 -122.96)"/></svg>