<?xml version="1.0" encoding="utf-8"?>
<!-- Generator: Adobe Illustrator 23.0.5, SVG Export Plug-In . SVG Version: 6.00 Build 0)  -->
<svg version="1.1" id="Layer_1" xmlns="http://www.w3.org/2000/svg" xmlns:xlink="http://www.w3.org/1999/xlink" x="0px" y="0px"
	 viewBox="0 0 400 400.1" style="enable-background:new 0 0 400 400.1;" xml:space="preserve">
<style type="text/css">
	.st0{fill:#FFFFFF;}
	.st1{fill:#666666;}
</style>
<title>ZK cloud</title>
<path class="st0" d="M267.6,13.2c-0.9-0.9-1.3-1.4-1.8-1.7C201-17.5,128.5,9.9,98.9,74.7c-2.5,5.5-5.1,6.9-11.1,6.6
	C44,79.1,5.7,112.4,0.6,156.7c-5,43.3,24.9,85.9,68.2,91.6c29.1,3.8,59,1.8,88.5,2.1c1.5,0,4.2-1.9,4.5-3.3c1.9-7.6,3.3-15.4,5-24
	c-26.3,0-51.2,0.1-76.1-0.1c-6.2,0-12.6,0-18.6-1.4c-30.8-6.8-50.3-37.4-43.4-68.2s37.4-50.3,68.2-43.4c0.3,0.1,0.5,0.1,0.8,0.2
	c5.6,1.3,11.2,2.9,17.4,4.5c5.4-28.6,17.5-52.2,40.9-68.8c23.5-16.7,49.5-21.6,78.6-15.9c-20.1,73.9-40,146.8-60.1,220.5
	c21.9,0,42.1-0.5,62.3,0.2c8.4,0.3,11.7-2.2,13.8-10.3c13.9-52.5,28.4-104.9,42.8-157.4c0.7-2.4,1.6-4.7,2.6-7.7
	c8.2,11.3,10.4,21.9,6.6,34.9c-12.6,43.6-24.2,87.4-36.1,131.2c-0.8,2.8-1.2,5.7-1.9,9.1c22.8,0,44.6,0.2,66.4-0.3
	c2.6,0,6.5-3.1,7.3-5.6c3.6-10.9,6.3-22.1,9.4-33.2l17.2-62.3c9.8,15,9.1,32.6,1.9,49c-6.3,14.4-10,29.9-14.8,45
	c30-12.2,46-33.9,47.8-64.4c2.2-37.1-17.8-61.2-49.7-78c-0.9,2.9-1.8,5.5-2.5,8.1c-9.3,34.2-18.7,68.3-28,102.5
	c-3.6,13.1-3.5,13.1-18.8,10.5c0.6-2.7,1.1-5.3,1.8-7.9c9.9-36.3,20-72.5,29.5-108.9c1.4-5.9,1.2-12.1-0.4-17.9
	c-8-28-26.3-48.9-48.9-67.7c-1,3.2-1.8,5.7-2.5,8.3c-16.8,61.4-33.6,122.9-50.4,184.3c-3.3,12.1-5.3,13.1-18.9,9
	C229.8,151.8,248.7,82.4,267.6,13.2z"/>
<path class="st0" d="M56.7,393.3c0,1.4-0.6,2.7-1.7,3.6c-1.2,1-2.8,1.5-4.3,1.4h-37c-1.6,0.1-3.2-0.5-4.4-1.5
	c-1-0.9-1.6-2.2-1.6-3.6c0-1.2,0.2-2.5,0.6-3.6c0.5-1.5,1.1-2.9,1.9-4.2c0.9-1.5,2-3.2,3.4-5.2c1.4-2,3.1-4.2,5.1-6.8l19.9-25.1
	c1.6-2,3-4.1,4.2-6.3c0.9-1.6,1.6-3.3,2.2-5H7.2v-2c-0.1-1.7,0.4-3.5,1.6-4.8c1-1.1,3.2-1.7,6.4-1.7h36.2c1.1,0.1,2.2,0.6,3,1.4
	c1,1,1.6,2.3,1.6,3.8c0,4-3,9.8-8.9,17.4l-19.6,25c-2,2.5-3.8,5-5.5,7.4c-1.5,2-2.8,4.2-3.9,6.4h38.6V393.3z"/>
<path class="st0" d="M77.9,398.4c-1.6,0-3.1-0.6-4.2-1.7c-1.2-1.3-1.8-3.1-1.7-4.9v-63.3h2.8c3.3-0.4,6.2,2,6.6,5.2
	c0,0.4,0.1,0.8,0,1.3v26.5l11.1-15c3.7-5,7.7-9.8,11.9-14.3c1.1-1.2,2.4-2.1,3.9-2.7c2.1-0.8,4.4-1.1,6.6-1h4.6v0.6
	c-2.4,2.1-4.6,4.3-6.7,6.6c-2.4,2.7-4.8,5.5-7.2,8.4s-4.8,5.9-7.2,9c-2.4,3.1-4.6,5.9-6.6,8.4c0.9,1.3,2.3,3.1,4,5.4
	s3.6,4.6,5.6,7.1s3.9,4.9,5.8,7.1s3.5,4.1,4.7,5.4c1.5,1.7,3.1,3.3,4.9,4.7c1.8,1.3,3.8,2.4,5.9,3.2c-0.7,1.2-1.4,2.2-2.3,3.2
	c-1,0.9-2.4,1.4-3.8,1.3c-1.7,0-3.4-0.3-4.9-1c-1.5-0.6-2.9-1.5-4-2.7c-2-2.2-4.3-4.7-6.8-7.7c-2.5-3-5-6-7.4-9
	c-2.4-3-4.7-6-6.9-8.8c-2.2-2.8-3.9-5.2-5.2-7v35.8L77.9,398.4z"/>
<path class="st1" d="M181.1,344.6c-1.8-2.8-4.5-5-7.6-6.1c-3-1.1-6.3-1.7-9.5-1.7c-3.5,0-7,0.6-10.3,1.9c-3,1.2-5.7,3-7.9,5.3
	c-2.2,2.3-4,5.1-5.1,8.1c-1.2,3.3-1.8,6.7-1.8,10.2c-0.1,4.3,0.6,8.6,2,12.6c1.2,3.4,3,6.5,5.4,9.1c2.2,2.4,5,4.3,8.1,5.4
	c3.2,1.2,6.7,1.8,10.1,1.8c3.3,0.1,6.6-0.5,9.7-1.8c2.7-1.1,5.1-2.8,7-5h0.6v2.9c0,1.7-0.5,3.3-1.3,4.8c-0.9,1.6-2.2,3-3.7,4.1
	c-1.8,1.3-3.8,2.3-6,2.8c-2.6,0.7-5.4,1-8.1,1c-4.4,0-8.8-0.9-12.9-2.7c-4-1.7-7.6-4.2-10.6-7.4c-3.1-3.3-5.5-7.2-7.1-11.4
	c-1.8-4.7-2.7-9.7-2.6-14.8c0-4.6,0.8-9.1,2.3-13.4c1.5-4.2,3.7-8.1,6.7-11.4c3-3.4,6.7-6.1,10.8-8c4.6-2.1,9.6-3.1,14.6-3
	c2.6,0,5.3,0.4,7.8,1.2c2,0.7,3.9,1.8,5.6,3.1c1.4,1.2,2.6,2.6,3.5,4.2c0.8,1.4,1.2,2.9,1.2,4.5v3.6H181.1z"/>
<path class="st1" d="M217.2,394.2c0,3.5-2.4,5.2-7.2,5.2c-5.2,0-9.2-1.3-11.9-3.8s-4.1-6.5-4-11.8v-58.1h2.8c1.7,0,3.3,0.6,4.5,1.7
	c1.3,1.4,1.9,3.3,1.8,5.2v50.1c0,3.3,0.8,5.6,2.3,6.7c1.8,1.2,3.9,1.8,6,1.7h5.8L217.2,394.2z"/>
<path class="st1" d="M272.2,371.7c0.1,4-0.5,8-1.7,11.9c-1,3.3-2.6,6.3-4.8,8.9c-2,2.4-4.6,4.3-7.5,5.6c-3,1.4-6.3,2-9.7,2
	c-3.3,0-6.6-0.6-9.7-1.9c-2.9-1.2-5.6-3.1-7.8-5.4c-2.2-2.4-4-5.3-5.1-8.3c-1.3-3.4-1.9-7.1-1.9-10.8c0-8.8,2.2-15.7,6.6-20.7
	s10.3-7.5,17.8-7.5c3.3,0,6.5,0.6,9.5,1.9c2.8,1.2,5.4,3,7.5,5.3c2.1,2.4,3.8,5.2,4.9,8.2C271.6,364.5,272.2,368.1,272.2,371.7z
	 M263,373.8c0-13.2-5.3-19.8-15.8-19.8c-4-0.1-7.7,1.6-10.2,4.7c-2.6,3.2-3.8,7.5-3.8,13.1c0,6,1.4,10.8,4.2,14.4
	c2.8,3.6,6.8,5.3,12,5.3c4.5,0,7.9-1.7,10.2-5C261.9,383.2,263,378.9,263,373.8z"/>
<path class="st1" d="M330.3,376.5c0,7.7-1.9,13.6-5.7,17.5c-3.8,4-9.2,6-16.3,6c-6.6,0-11.8-2.1-15.7-6.4c-3.9-4.2-5.8-10.2-5.9-18
	v-29.3h2.8c4.2,0,6.3,2.4,6.3,7.1V375c0,5.4,1.2,9.5,3.6,12.3c2.4,2.7,5.8,4.3,9.4,4.2c4.2,0,7.3-1.2,9.4-3.7s3.1-6.6,3.1-12.3
	v-29.1h2.4c4.3,0,6.5,2.4,6.5,7.1V376.5z"/>
<path class="st1" d="M392.7,371.1c0,10.2-1.9,17.6-5.7,22.1c-3.8,4.6-9.9,6.8-18.1,6.8c-3.2,0-6.4-0.7-9.3-2.1
	c-2.9-1.4-5.5-3.3-7.7-5.7c-4.6-5.2-7.2-11.9-7.1-18.8c0-9.1,2-16,6-20.8c4-4.8,9.7-7.2,17-7.2c3.2,0,6.3,0.8,9,2.3
	c3,1.8,5.4,4.5,6.8,7.8v-29.8h2.5c4.5,0,6.7,2.4,6.7,7.3L392.7,371.1z M383.5,373.7c0-2.4-0.2-4.8-0.6-7.2c-0.4-2.3-1.2-4.5-2.4-6.4
	c-1.2-1.9-2.8-3.5-4.7-4.6c-2.4-1.2-5.1-1.8-7.8-1.7c-4.6,0-8.2,1.6-10.6,4.9c-2.4,3.3-3.7,7.9-3.7,14c0,2.5,0.4,5,1.2,7.3
	c0.7,2.2,1.8,4.2,3.2,6c1.4,1.7,3.1,3.1,5,4c2,1,4.2,1.5,6.4,1.5c4.8,0,8.3-1.4,10.5-4.1C382.4,384.8,383.5,380.2,383.5,373.7z"/>
</svg>
